<?xml version="1.0" encoding="UTF-8" standalone="no"?><!DOCTYPE svg PUBLIC "-//W3C//DTD SVG 1.1//EN" "http://www.w3.org/Graphics/SVG/1.1/DTD/svg11.dtd"><svg width="100%" height="100%" viewBox="0 0 264 238" version="1.1" xmlns="http://www.w3.org/2000/svg" xmlns:xlink="http://www.w3.org/1999/xlink" xml:space="preserve" xmlns:serif="http://www.serif.com/" style="fill-rule:evenodd;clip-rule:evenodd;stroke-linejoin:round;stroke-miterlimit:2;"><path d="M20.242,0.002c0.405,-0.445 112.773,74.132 112.773,74.132c29.056,1.31 54.104,-21.598 93.504,-64.832c0.535,0.487 -55.895,99.105 -55.895,99.105c3.995,28.81 32.295,58.071 84.256,105.424c-0.405,0.445 -112.773,-74.132 -112.773,-74.132c-29.056,-1.31 -54.104,21.598 -93.504,64.832c-0.535,-0.487 55.895,-99.105 55.895,-99.105c-3.995,-28.81 -32.295,-58.071 -84.256,-105.424Z" style="fill:#020202;fill-opacity:1;"/><path d="M-107.797,111.277c119.237,-50.622 236.966,-42.437 262.738,18.267c25.772,60.704 -50.11,151.087 -169.347,201.709c-119.237,50.622 -236.966,42.437 -262.738,-18.267c-25.772,-60.704 50.11,-151.087 169.347,-201.709Zm10.72,25.25c91.864,-39.001 182.565,-32.694 202.42,14.074c19.855,46.768 -38.606,116.401 -130.47,155.402c-91.864,39.001 -182.565,32.694 -202.42,-14.074c-19.855,-46.768 38.606,-116.401 130.47,-155.402Z" style="fill:#020202;fill-opacity:1;"/></svg>