<?xml version="1.0" encoding="UTF-8" standalone="no"?><!DOCTYPE svg PUBLIC "-//W3C//DTD SVG 1.1//EN" "http://www.w3.org/Graphics/SVG/1.1/DTD/svg11.dtd"><svg width="100%" height="100%" viewBox="0 0 2721 2153" version="1.1" xmlns="http://www.w3.org/2000/svg" xmlns:xlink="http://www.w3.org/1999/xlink" xml:space="preserve" xmlns:serif="http://www.serif.com/" style="fill-rule:evenodd;clip-rule:evenodd;stroke-linejoin:round;stroke-miterlimit:2;"><path d="M900.177,853.655c496.821,-210.925 987.358,-176.82 1094.741,76.114c107.383,252.933 -208.792,629.528 -705.613,840.453c-496.821,210.925 -987.358,176.82 -1094.741,-76.114c-107.383,-252.933 208.792,-629.528 705.613,-840.453Zm44.667,105.209c382.765,-162.502 760.688,-136.227 843.418,58.64c82.731,194.867 -160.859,485.005 -543.624,647.508c-382.765,162.502 -760.688,136.227 -843.418,-58.64c-82.731,-194.867 160.859,-485.005 543.624,-647.508Z" style="fill:#020202;fill-opacity:1;"/><path d="M1639.276,2048.571l-344.172,0c-60.977,-42.747 -154.328,-154.642 -280.053,-335.686c-40.232,-57.834 -82.036,-113.31 -125.411,-166.429c-43.375,-53.119 -73.235,-85.493 -89.579,-97.123c-16.344,-11.63 -41.804,-17.444 -76.378,-17.444l-50.919,0l0,283.824c0,100.58 2.357,166.429 7.072,197.546c4.715,31.117 17.287,54.219 37.718,69.306c20.43,15.087 59.562,22.631 117.396,22.631l61.291,0l0,43.375l-611.967,0l0,-43.375l41.489,0c54.69,0 92.565,-6.915 113.624,-20.745c21.059,-13.83 34.417,-35.36 40.075,-64.591c5.658,-29.231 8.486,-97.28 8.486,-204.146l0,-627.054c0,-101.837 -2.829,-167.529 -8.486,-197.074c-5.658,-29.545 -18.23,-49.976 -37.718,-61.291c-19.487,-11.315 -61.605,-16.973 -126.354,-16.973l-21.688,0l0,-43.375l182.93,-9.429c121.953,-5.658 218.762,-8.486 290.425,-8.486c121.953,0 221.119,11.315 297.497,33.946c76.378,22.631 138.14,59.719 185.287,111.267c47.147,51.547 70.72,113.153 70.72,184.816c0,83.607 -30.803,154.956 -92.408,214.047c-61.605,59.091 -152.127,95.865 -271.566,110.324c53.433,25.774 139.555,118.81 258.365,279.11c96.808,130.125 172.872,215.304 228.191,255.536c55.319,40.232 120.696,61.605 196.131,64.12l0,43.375Zm-966.512,-660.057c47.147,-1.257 95.865,-3.143 146.155,-5.658c50.29,-2.515 93.98,-9.429 131.068,-20.745c37.089,-11.315 67.106,-27.817 90.051,-49.504c22.945,-21.688 41.018,-50.133 54.219,-85.336c13.201,-35.203 19.802,-78.578 19.802,-130.125c0,-89.893 -22.473,-161.871 -67.42,-215.933c-44.947,-54.062 -142.855,-81.093 -293.725,-81.093c-23.259,0 -49.976,1.257 -80.15,3.772l0,584.622Z" style="fill-rule:nonzero;"/><path d="M1372.447,406.728c1.689,-1.854 469.888,308.882 469.888,308.882c121.068,5.458 225.434,-89.991 389.6,-270.131c2.228,2.031 -232.895,412.939 -232.895,412.939c16.646,120.042 134.562,241.964 351.065,439.268c-1.689,1.854 -469.888,-308.882 -469.888,-308.882c-121.068,-5.458 -225.434,89.991 -389.6,270.131c-2.228,-2.031 232.895,-412.939 232.895,-412.939c-16.646,-120.042 -134.562,-241.964 -351.065,-439.268Z" style="fill:#020202;fill-opacity:1;"/></svg>